<svg width="39" height="39" viewBox="0 0 39 39" fill="none" xmlns="http://www.w3.org/2000/svg">
<g clip-path="url(#clip0_96_1759)">
<path d="M34.5866 23.3889C33.4498 22.7847 32.3224 22.4858 31.7078 22.3552C32.5445 20.4139 33.009 18.2758 33.009 16.0312C33.009 7.19148 25.8174 0 16.9779 0C14.7489 0 12.6251 0.457794 10.6946 1.28342C10.6526 1.29645 10.6128 1.31397 10.5755 1.3356C8.97386 2.03608 7.50747 2.99029 6.22855 4.14825C6.17606 4.18306 6.1296 4.22572 6.09136 4.27493C2.92954 7.20496 0.946777 11.3906 0.946777 16.0311C0.946777 17.2898 1.0931 18.5149 1.36869 19.6908C1.37349 19.7173 1.37951 19.7434 1.38774 19.7685C1.71474 21.1325 2.21588 22.4294 2.86738 23.6338C2.89137 23.7118 2.93113 23.7818 2.9824 23.8412C4.75431 27.0039 7.56674 29.5077 10.9533 30.8861C10.9877 30.9044 11.0237 30.9191 11.0611 30.9303C12.169 31.3718 13.3371 31.6935 14.5497 31.8785C14.5685 31.882 14.5874 31.8848 14.6065 31.8864C15.3805 32.0016 16.1722 32.062 16.9778 32.062C21.6563 32.062 25.8728 30.0471 28.8061 26.8398C30.456 27.1824 32.525 27.9734 32.525 28.724C32.525 28.7634 32.4842 29.1289 31.0702 29.8335C30.0114 30.3611 28.5311 30.9103 26.9638 31.4917C22.3162 33.216 17.0486 35.1703 17.0486 38.4219C17.0486 38.7412 17.3072 38.9998 17.6265 38.9998H23.5237C23.7144 38.9998 23.8926 38.9058 24.0005 38.7486C24.0141 38.7288 25.4021 36.7562 29.3748 35.5568C31.924 34.7873 33.8433 33.959 35.2423 33.0248C37.1074 31.7794 38.0531 30.3189 38.0531 28.6837C38.0532 26.4254 36.8544 24.5943 34.5866 23.3889ZM16.9779 1.15583C24.0862 1.15583 30.0447 6.16788 31.5081 12.8433C30.0247 10.5127 28.2721 8.49691 26.275 6.82966C24.1251 5.03482 21.6909 3.63874 19.0401 2.68011C17.1483 1.99601 15.4272 1.63404 14.0545 1.44491C15.0001 1.2557 15.9775 1.15583 16.9779 1.15583ZM11.0094 2.40719C11.6211 2.38792 14.7784 2.36796 18.6473 3.76709C22.5939 5.19417 28.0777 8.43369 31.8498 15.7611C31.8514 15.8509 31.8532 15.9407 31.8532 16.0309C31.8532 16.5456 31.8268 17.0543 31.7756 17.5556C31.3307 16.7799 30.8589 16.0347 30.3614 15.32C30.3488 15.2989 30.3346 15.2788 30.3195 15.2595C29.0182 13.4007 27.5397 11.7533 25.8959 10.3313C25.8927 10.3285 25.8898 10.3255 25.8866 10.3229C25.8857 10.3221 25.8845 10.3215 25.8835 10.3206C25.5316 10.0165 25.1724 9.72244 24.8055 9.43924C23.1882 8.19108 21.4251 7.14539 19.5382 6.31062C19.5234 6.30331 19.5081 6.29676 19.4928 6.29082C18.7437 5.96115 17.975 5.66484 17.1881 5.40258C17.1691 5.39519 17.1499 5.38879 17.1302 5.38338C16.8417 5.28794 16.5515 5.19547 16.2582 5.10916C12.9427 4.13378 10.0542 3.95379 8.29083 3.96346C9.13512 3.35401 10.0457 2.83109 11.0094 2.40719ZM11.5901 16.0579C11.5911 16.0773 11.5929 16.0964 11.5957 16.1153C10.4498 16.7102 9.37948 17.1705 8.43091 17.5238C8.25579 17.589 8.08371 17.6504 7.91324 17.7101C8.4939 14.4315 10.1628 11.5807 12.8822 9.22786C12.9698 9.15207 13.0571 9.07856 13.1442 9.00612C12.3103 10.6599 11.453 13.1136 11.5901 16.0579ZM6.68192 18.1088C5.89042 18.344 5.17074 18.5183 4.544 18.6471C4.7585 15.084 6.05982 11.8292 8.41788 8.96271C10.3071 6.66627 12.2039 5.49596 12.2229 5.48439C12.2539 5.4655 12.2822 5.44386 12.3083 5.4204C13.2675 5.56376 14.3093 5.77155 15.4024 6.0684C14.5445 6.54127 13.3739 7.27892 12.158 8.32606C10.0138 10.1728 7.33753 13.3635 6.68192 18.1088ZM15.4759 7.46181C15.5164 7.41382 15.5474 7.36096 15.5697 7.30574C16.2275 6.92038 16.7413 6.67579 17.0019 6.55925C17.418 6.70192 17.8446 6.86028 18.2795 7.03647C17.5278 7.95289 16.3431 9.89726 15.8751 13.4109C14.8012 14.2222 13.7447 14.9096 12.7323 15.4929C12.7145 10.8137 15.4375 7.50782 15.4759 7.46181ZM19.3938 7.51978C19.9622 7.7828 20.5407 8.0766 21.1244 8.40459C19.8503 9.92316 18.536 11.22 17.2293 12.3265C17.819 9.46605 18.9107 8.03584 19.3938 7.51978ZM2.10269 16.0311C2.10269 11.7575 3.91482 7.89972 6.81035 5.18404C7.29762 5.14176 8.68486 5.05546 10.6026 5.21999C9.82417 5.82533 8.69576 6.81237 7.5544 8.19329C5.75468 10.3707 3.60084 13.9646 3.3759 18.8561C2.96907 18.9174 2.63909 18.9545 2.39618 18.977C2.20407 18.0245 2.10269 17.0395 2.10269 16.0311ZM2.67223 20.1133C3.75783 20.0028 5.98137 19.6634 8.78366 18.6257C10.972 17.8152 13.7773 16.4638 16.6909 14.2416C16.7453 14.2121 16.7951 14.1745 16.8375 14.1294C18.6029 12.7667 20.4043 11.0817 22.1303 9.00186C22.9872 9.53879 23.8491 10.1527 24.701 10.855C20.252 16.125 14.7923 19.0991 10.947 20.6754C7.5224 22.0794 4.75012 22.6494 3.74717 22.8255C3.30438 21.9664 2.94256 21.0591 2.67223 20.1133ZM5.82422 25.8617C5.28226 25.2475 4.79027 24.5884 4.35426 23.8907C5.62679 23.646 8.19881 23.0478 11.35 21.7595C15.3241 20.1347 20.9675 17.065 25.5755 11.6113C25.6476 11.6766 25.7197 11.7428 25.7915 11.8095C25.79 11.8219 25.7882 11.8342 25.7872 11.8469C25.7857 11.8721 25.6553 13.8052 24.7421 16.438C24.7364 16.4429 24.7304 16.4474 24.7249 16.4525C20.1304 20.7768 15.252 23.1022 11.9686 24.2915C8.40265 25.5833 5.89263 25.8525 5.86757 25.8551C5.85302 25.8565 5.83862 25.8591 5.82422 25.8617ZM16.0786 23.7993C18.4308 22.6505 21.0932 21.056 23.74 18.8634C23.7066 18.9325 23.6728 19.0019 23.6383 19.0713C22.6822 20.9967 21.498 22.7049 20.0928 24.1921C18.2839 24.5633 16.9018 24.1756 16.0786 23.7993ZM18.736 25.4978C18.113 26.0441 17.4543 26.554 16.7598 27.0269C15.26 27.4242 13.7743 27.2371 12.3429 26.468C11.9102 26.2354 11.5468 25.9814 11.2627 25.7571C11.6042 25.6453 11.9576 25.5243 12.3228 25.3924C13.0702 25.1226 13.8977 24.7957 14.7842 24.4026C15.3562 24.7766 16.7117 25.499 18.6546 25.499C18.6815 25.499 18.709 25.4981 18.736 25.4978ZM6.81705 26.8844C7.50534 26.7675 8.58965 26.5482 9.95884 26.1569C10.5737 26.7513 12.2178 28.1162 14.5376 28.352C13.5043 28.8885 12.4066 29.3568 11.2463 29.7571C9.599 29.0667 8.10169 28.0879 6.81705 26.8844ZM14.644 30.7228C14.0673 30.6314 13.5015 30.5073 12.9486 30.3514C14.4955 29.7221 15.9358 28.9606 17.26 28.0715C17.2906 28.0545 17.3192 28.035 17.3456 28.0132C18.2971 27.3678 19.1897 26.658 20.0169 25.8824C20.2498 25.664 20.4776 25.4405 20.7005 25.212C20.7888 25.1586 20.8598 25.0829 20.9082 24.9943C22.4103 23.4106 23.6746 21.5968 24.6734 19.5854C26.103 16.7064 26.6394 14.1456 26.8347 12.8361C27.6698 13.7071 28.4814 14.6784 29.2539 15.7613C29.1051 16.5503 28.4942 19.2876 26.7476 22.2144C24.02 26.7847 19.9478 29.6464 14.644 30.7228ZM18.334 30.8439C20.042 30.1778 21.6101 29.2947 23.0193 28.199C24.8917 26.7429 26.488 24.9154 27.7637 22.767C29.1013 20.5146 29.7986 18.4032 30.1413 17.0837C30.6016 17.8131 31.0445 18.5873 31.4659 19.4095C30.0315 25.5623 24.7677 30.2596 18.334 30.8439ZM29.0408 34.4507C25.4861 35.5238 23.7857 37.2085 23.2445 37.8443H18.3002C18.5816 36.9964 19.4864 36.149 21.0432 35.2699C22.8422 34.2539 25.2456 33.3624 27.3661 32.5757C31.3991 31.0793 33.681 30.1627 33.681 28.7242C33.681 27.7478 32.7967 26.9271 31.0527 26.2848C30.5488 26.0992 30.0486 25.9555 29.64 25.8513C30.2272 25.096 30.7481 24.2869 31.1945 23.4329C31.5789 23.5013 32.8369 23.7621 34.0704 24.4236C35.9464 25.4294 36.8974 26.8628 36.8974 28.6842C36.8974 30.9683 34.3275 32.8547 29.0408 34.4507Z" fill="black"/>
</g>
<defs>
<clipPath id="clip0_96_1759">
<rect width="39" height="39" fill="white"/>
</clipPath>
</defs>
</svg>
