<svg width="94" height="94" viewBox="0 0 94 94" fill="none" xmlns="http://www.w3.org/2000/svg">
<path fill-rule="evenodd" clip-rule="evenodd" d="M8.10499 19.616C7.83337 21.0556 7.83337 22.7839 7.83337 26.2405V53.854C7.83337 68.6245 7.83337 76.0102 12.422 80.5986C17.0107 85.1873 24.396 85.1873 39.1667 85.1873H54.8334C69.6039 85.1873 76.9896 85.1873 81.5779 80.5986C86.1667 76.0102 86.1667 68.6245 86.1667 53.854V45.2291C86.1667 34.919 86.1667 29.764 83.1528 26.4132C82.8759 26.105 82.5826 25.8116 82.2743 25.5344C78.9232 22.5207 73.7685 22.5207 63.4583 22.5207H61.9946C57.4759 22.5207 55.2168 22.5207 53.1116 21.9206C51.955 21.5909 50.8399 21.1291 49.7891 20.5444C47.8762 19.48 46.2786 17.8825 43.0834 14.6873L40.928 12.5322C39.8572 11.4613 39.3218 10.9258 38.7591 10.4593C36.3331 8.44824 33.3569 7.21547 30.2194 6.92208C29.4916 6.854 28.7344 6.854 27.2199 6.854C23.7633 6.854 22.035 6.854 20.5954 7.12562C14.2579 8.32134 9.30071 13.2786 8.10499 19.616ZM47 43.0832C48.6223 43.0832 49.9375 44.3984 49.9375 46.0207V50.9165H54.8334C56.4557 50.9165 57.7709 52.2317 57.7709 53.854C57.7709 55.4763 56.4557 56.7915 54.8334 56.7915H49.9375V61.6873C49.9375 63.3096 48.6223 64.6248 47 64.6248C45.3778 64.6248 44.0625 63.3096 44.0625 61.6873V56.7915H39.1667C37.5444 56.7915 36.2292 55.4763 36.2292 53.854C36.2292 52.2317 37.5444 50.9165 39.1667 50.9165H44.0625V46.0207C44.0625 44.3984 45.3778 43.0832 47 43.0832Z" fill="#FF6158"/>
</svg>
