<svg width="103" height="103" viewBox="0 0 103 103" fill="none" xmlns="http://www.w3.org/2000/svg">
<path d="M90.8704 86.0983H35.9901C33.7233 86.0983 26.4457 77.7469 26.4457 77.7469C26.4457 77.7469 33.7233 69.3956 35.9901 69.3956H90.8704C93.4952 69.3956 95.6426 71.5432 95.6426 74.1678V81.3261C95.6426 83.9508 93.4952 86.0983 90.8704 86.0983ZM90.8704 59.8512H35.9901C33.7233 59.8512 26.4457 51.4999 26.4457 51.4999C26.4457 51.4999 33.7233 43.1485 35.9901 43.1485H90.8704C93.4952 43.1485 95.6426 45.296 95.6426 47.9207V55.079C95.6426 57.7037 93.4952 59.8512 90.8704 59.8512ZM90.8704 33.6041H35.9901C33.7233 33.6041 26.4457 25.2528 26.4457 25.2528C26.4457 25.2528 33.7233 16.9014 35.9901 16.9014H90.8704C93.4952 16.9014 95.6426 19.0489 95.6426 21.6736V28.8319C95.6426 31.4566 93.4952 33.6041 90.8704 33.6041ZM13.3222 83.7122C9.98167 83.7122 7.35693 81.0876 7.35693 77.7469C7.35693 74.4064 9.98167 71.7817 13.3222 71.7817C16.6627 71.7817 19.2874 74.4064 19.2874 77.7469C19.2874 81.0876 16.6627 83.7122 13.3222 83.7122ZM14.5152 59.7319V69.5149C14.1569 69.5149 13.6801 69.3957 13.3222 69.3957C12.9639 69.3957 12.4871 69.5149 12.1291 69.5149V59.7319C12.4874 59.7319 12.9643 59.8511 13.3222 59.8511C13.6805 59.8511 14.1573 59.7319 14.5152 59.7319ZM13.3222 57.4651C9.98167 57.4651 7.35693 54.8404 7.35693 51.4999C7.35693 48.1594 9.98167 45.5346 13.3222 45.5346C16.6627 45.5346 19.2874 48.1594 19.2874 51.4999C19.2874 54.8405 16.6627 57.4651 13.3222 57.4651ZM14.5152 33.4848V43.2678C14.1569 43.2678 13.6801 43.1486 13.3222 43.1486C12.9639 43.1486 12.4871 43.2678 12.1291 43.2678V33.4848C12.4874 33.4848 12.9643 33.604 13.3222 33.604C13.6805 33.604 14.1573 33.4848 14.5152 33.4848ZM13.3222 31.218C9.98167 31.218 7.35693 28.5933 7.35693 25.2528C7.35693 21.9122 9.98167 19.2875 13.3222 19.2875C16.6627 19.2875 19.2874 21.9122 19.2874 25.2528C19.2874 28.5933 16.6627 31.218 13.3222 31.218ZM12.1291 17.0207V10.9362C12.1291 10.2203 12.6066 9.74316 13.3222 9.74316C14.038 9.74316 14.5152 10.2206 14.5152 10.9362V17.0207C14.1569 17.0207 13.6801 16.9015 13.3222 16.9015C12.9639 16.9015 12.4871 17.0207 12.1291 17.0207ZM14.5152 85.979V92.0636C14.5152 92.7794 14.0377 93.2566 13.3222 93.2566C12.6063 93.2566 12.1291 92.7791 12.1291 92.0636V85.979C12.4874 85.979 12.9643 86.0982 13.3222 86.0982C13.6805 86.0982 14.1573 85.979 14.5152 85.979Z" fill="#FF6158"/>
</svg>
